<?xml version="1.0" encoding="UTF-8"?>
<svg id="Layer_2" data-name="Layer 2" xmlns="http://www.w3.org/2000/svg" viewBox="0 0 79.52 91.58">
  <defs>
    <style>
      .cls-1 {
        fill: #201600;
      }
    </style>
  </defs>
  <g id="Layer_2_copy_2" data-name="Layer 2 copy 2">
    <path class="cls-1" d="M79.52,23.28c0-.06-.03-.12-.05-.18-.03-.13-.1-.25-.19-.34-.05-.05-.08-.11-.14-.14L40.14,.1s-.02,0-.04,0c-.11-.05-.22-.09-.35-.09s-.24,.04-.35,.09c-.01,0-.02,0-.04,0L.38,22.61c-.06,.03-.09,.09-.14,.14-.11,.11-.19,.25-.21,.41,0,.04-.03,.08-.03,.12v45.02s0,.02,0,.04c0,.12,.03,.24,.09,.34,.07,.12,.16,.21,.28,.28h0s0,0,0,0l38.98,22.51c.11,.07,.25,.1,.38,.1s.27-.04,.38-.1l38.98-22.51s0,0,0,0h0c.12-.07,.22-.17,.28-.29,.06-.11,.09-.23,.09-.34,0-.01,0-.02,0-.04V23.28ZM46.11,56.28h-12.7l-5.91-10.23,6.35-11h11.82l6.35,11-5.91,10.23Zm6.5-9.21l5.32,9.21h-10.64l5.32-9.21Zm-18.31,10.74h10.93l-5.47,9.47-5.47-9.47Zm-2.07-1.53h-10.64l5.32-9.21,5.32,9.21Zm-5.61-11.77l-5.47-9.47h10.93l-5.47,9.47Zm18.46-10.49h-10.64l5.32-9.21,5.32,9.21Zm2.36,1.02h10.93l-5.47,9.47-5.47-9.47Zm-.59-1.02l-5.76-9.98h11.52l5.76,9.98h-11.52Zm-6.32-11.51V3.12l11.2,19.39h-11.2Zm-1.53,0h-11.2L38.99,3.12V22.51Zm-.56,1.53l-5.76,9.98h-11.52l5.76-9.98h11.52Zm-18.35,9.79L3.12,24.05H25.73l-5.65,9.79Zm-.51,.89l-5.65,9.79L2.61,24.93l16.96,9.79Zm.7,.84l5.76,9.98-5.76,9.98-5.76-9.98,5.76-9.98Zm-1.05,21.21L2.42,66.46l11.2-19.39,5.6,9.7Zm.77,1.33l5.6,9.7H3.19l16.8-9.7Zm1.61-.28h11.52l5.76,9.98h-11.52l-5.76-9.98Zm17.66,11v19.58l-11.3-19.58h11.3Zm1.02,0h11.3l-11.3,19.58v-19.58Zm.37-1.02l5.76-9.98h11.52l-5.76,9.98h-11.52Zm18.89-9.7l16.8,9.7h-22.39l5.6-9.7Zm.77-1.33l5.6-9.7,11.2,19.39-16.8-9.7Zm-1.05-1.25l-5.76-9.98,5.76-9.98,5.76,9.98-5.76,9.98Zm.7-20.79l16.96-9.79-11.3,19.58-5.65-9.79Zm-.51-.89l-5.65-9.79h22.61l-16.96,9.79Zm-6.54-11.32L41.41,2.61l34.48,19.9h-22.98Zm-26.29,0H3.63L38.1,2.61l-11.49,19.9Zm-13.59,23.53L1.53,65.95V26.14l11.49,19.9Zm13.14,22.77l11.49,19.9L3.19,68.81H26.17Zm27.17,0h22.98l-34.48,19.9,11.49-19.9Zm13.14-22.77l11.49-19.9v39.81l-11.49-19.9Z"/>
  </g>
</svg>