<?xml version="1.0" encoding="UTF-8"?>
<svg id="Layer_2" data-name="Layer 2" xmlns="http://www.w3.org/2000/svg" viewBox="0 0 292.88 292.36">
  <defs>
    <style>
      .cls-1 {
        fill: none;
        stroke: #231f20;
        stroke-linecap: round;
        stroke-linejoin: round;
        stroke-width: .99px;
      }
    </style>
  </defs>
  <g id="Layer_1-2" data-name="Layer 1">
    <g id="Icosahedron_Wire" data-name="Icosahedron Wire">
      <g>
        <g>
          <polygon class="cls-1" points="125.26 232.31 164.9 232.31 145.08 266.64 125.26 232.31"/>
          <line class="cls-1" x1="145.08" y1="197.98" x2="125.26" y2="232.31"/>
          <line class="cls-1" x1="105.44" y1="266.64" x2="145.08" y2="266.64"/>
          <line class="cls-1" x1="184.72" y1="266.64" x2="164.9" y2="232.31"/>
          <polyline class="cls-1" points="105.44 220.87 125.26 232.31 105.44 266.64 105.44 220.87 145.08 197.98"/>
          <polyline class="cls-1" points="145.08 289.53 145.08 266.64 184.72 266.64 145.08 289.53 105.44 266.64"/>
          <polyline class="cls-1" points="184.72 220.87 164.9 232.31 145.08 197.98 184.72 220.87 184.72 266.64"/>
        </g>
        <g>
          <polygon class="cls-1" points="164.9 255.2 125.26 255.2 145.08 220.87 164.9 255.2"/>
          <line class="cls-1" x1="145.08" y1="289.53" x2="164.9" y2="255.2"/>
          <line class="cls-1" x1="184.72" y1="220.87" x2="145.08" y2="220.87"/>
          <line class="cls-1" x1="105.44" y1="220.87" x2="125.26" y2="255.2"/>
          <polyline class="cls-1" points="184.72 266.64 164.9 255.2 184.72 220.87 184.72 266.64 145.08 289.53"/>
          <polyline class="cls-1" points="145.08 197.98 145.08 220.87 105.44 220.87 145.08 197.98 184.72 220.87"/>
          <polyline class="cls-1" points="105.44 266.64 125.26 255.2 145.08 289.53 105.44 266.64 105.44 220.87"/>
        </g>
      </g>
      <g>
        <g>
          <polygon class="cls-1" points="249.66 .5 206.94 31.54 223.26 81.76 276.06 81.76 292.38 31.54 249.66 .5"/>
          <line class="cls-1" x1="249.66" y1=".5" x2="249.66" y2="45.42"/>
          <line class="cls-1" x1="206.94" y1="31.54" x2="249.66" y2="45.42"/>
          <line class="cls-1" x1="223.26" y1="81.76" x2="249.66" y2="45.42"/>
          <line class="cls-1" x1="276.06" y1="81.76" x2="249.66" y2="45.42"/>
          <line class="cls-1" x1="292.38" y1="31.54" x2="249.66" y2="45.42"/>
        </g>
        <g>
          <polygon class="cls-1" points="249.66 90.34 206.94 59.3 223.26 9.08 276.06 9.08 292.38 59.3 249.66 90.34"/>
          <line class="cls-1" x1="249.66" y1="90.34" x2="249.66" y2="45.42"/>
          <line class="cls-1" x1="206.94" y1="59.3" x2="249.66" y2="45.42"/>
          <line class="cls-1" x1="223.26" y1="9.08" x2="249.66" y2="45.42"/>
          <line class="cls-1" x1="276.06" y1="9.08" x2="249.66" y2="45.42"/>
          <line class="cls-1" x1="292.38" y1="59.3" x2="249.66" y2="45.42"/>
        </g>
        <polygon class="cls-1" points="207.09 31.74 207.09 59.41 223.35 81.79 249.66 90.34 275.97 81.79 292.23 59.41 292.23 31.74 275.97 9.36 249.66 .81 223.35 9.36 207.09 31.74"/>
      </g>
      <g>
        <line class="cls-1" x1="105.76" y1="21.97" x2="145.08" y2="6.53"/>
        <line class="cls-1" x1="145.08" y1="6.53" x2="105.76" y2="70.22"/>
        <line class="cls-1" x1="105.76" y1="21.97" x2="105.76" y2="70.22"/>
        <line class="cls-1" x1="184.4" y1="21.97" x2="145.08" y2="6.53"/>
        <line class="cls-1" x1="145.08" y1="6.53" x2="184.4" y2="70.22"/>
        <line class="cls-1" x1="105.76" y1="70.17" x2="145.08" y2="85.61"/>
        <line class="cls-1" x1="145.08" y1="85.61" x2="105.76" y2="21.93"/>
        <line class="cls-1" x1="184.4" y1="70.17" x2="145.08" y2="85.61"/>
        <line class="cls-1" x1="145.08" y1="85.61" x2="184.4" y2="21.93"/>
        <line class="cls-1" x1="184.4" y1="21.97" x2="184.4" y2="70.22"/>
        <line class="cls-1" x1="169.51" y1="46.09" x2="120.65" y2="46.09"/>
      </g>
      <g>
        <polygon class="cls-1" points="2.77 23.19 2.77 67.95 41.53 90.34 80.3 67.95 80.3 23.19 41.53 .81 2.77 23.19"/>
        <line class="cls-1" x1="41.53" y1=".81" x2="41.53" y2="18.06"/>
        <line class="cls-1" x1="2.77" y1="67.95" x2="17.71" y2="31.82"/>
        <line class="cls-1" x1="41.53" y1=".81" x2="17.71" y2="31.82"/>
        <line class="cls-1" x1="2.77" y1="23.19" x2="17.71" y2="31.82"/>
        <line class="cls-1" x1="41.53" y1=".81" x2="65.36" y2="31.82"/>
        <line class="cls-1" x1="80.3" y1="23.19" x2="41.53" y2="18.06"/>
        <line class="cls-1" x1="2.77" y1="23.19" x2="41.53" y2="18.06"/>
        <line class="cls-1" x1="17.71" y1="59.33" x2="2.77" y2="23.19"/>
        <line class="cls-1" x1="41.53" y1="90.34" x2="17.71" y2="59.33"/>
        <line class="cls-1" x1="2.77" y1="67.95" x2="17.71" y2="59.33"/>
        <line class="cls-1" x1="41.53" y1="18.06" x2="17.71" y2="59.33"/>
        <line class="cls-1" x1="17.71" y1="31.82" x2="41.53" y2="73.08"/>
        <line class="cls-1" x1="65.36" y1="31.82" x2="41.53" y2="73.08"/>
        <line class="cls-1" x1="65.36" y1="59.33" x2="41.53" y2="18.06"/>
        <line class="cls-1" x1="80.3" y1="23.19" x2="65.36" y2="31.82"/>
        <line class="cls-1" x1="65.36" y1="59.33" x2="80.3" y2="23.19"/>
        <line class="cls-1" x1="80.3" y1="67.95" x2="65.36" y2="59.33"/>
        <line class="cls-1" x1="41.53" y1="90.34" x2="65.36" y2="59.33"/>
        <line class="cls-1" x1="65.36" y1="31.82" x2="80.3" y2="67.95"/>
        <line class="cls-1" x1="41.53" y1="73.08" x2="80.3" y2="67.95"/>
        <line class="cls-1" x1="2.77" y1="67.95" x2="41.53" y2="73.08"/>
        <line class="cls-1" x1="41.53" y1="73.08" x2="41.53" y2="90.34"/>
        <line class="cls-1" x1="17.71" y1="31.82" x2="65.36" y2="31.82"/>
        <line class="cls-1" x1="17.71" y1="59.33" x2="65.36" y2="59.33"/>
      </g>
      <g>
        <line class="cls-1" x1="210" y1="121.95" x2="292.07" y2="121.95"/>
        <line class="cls-1" x1="251.03" y1="121.95" x2="251.03" y2="95.19"/>
        <line class="cls-1" x1="210" y1="121.95" x2="251.03" y2="95.19"/>
        <line class="cls-1" x1="225.57" y1="121.95" x2="251.03" y2="95.19"/>
        <line class="cls-1" x1="292.07" y1="121.95" x2="251.03" y2="95.19"/>
        <line class="cls-1" x1="276.49" y1="121.95" x2="251.03" y2="95.19"/>
        <line class="cls-1" x1="210" y1="164.63" x2="292.07" y2="164.63"/>
        <line class="cls-1" x1="251.03" y1="164.63" x2="251.03" y2="191.39"/>
        <line class="cls-1" x1="210" y1="164.63" x2="251.03" y2="191.39"/>
        <line class="cls-1" x1="225.57" y1="164.63" x2="251.03" y2="191.39"/>
        <line class="cls-1" x1="292.07" y1="164.63" x2="251.03" y2="191.39"/>
        <line class="cls-1" x1="276.49" y1="164.63" x2="251.03" y2="191.39"/>
        <line class="cls-1" x1="210" y1="121.95" x2="210" y2="164.63"/>
        <line class="cls-1" x1="292.07" y1="164.63" x2="292.07" y2="121.95"/>
        <line class="cls-1" x1="210" y1="121.95" x2="225.57" y2="164.63"/>
        <line class="cls-1" x1="251.03" y1="121.95" x2="225.57" y2="164.63"/>
        <line class="cls-1" x1="276.49" y1="164.63" x2="251.03" y2="121.95"/>
        <line class="cls-1" x1="292.07" y1="121.95" x2="276.49" y2="164.63"/>
        <line class="cls-1" x1="210" y1="164.63" x2="225.57" y2="121.95"/>
        <line class="cls-1" x1="251.03" y1="164.63" x2="225.57" y2="121.95"/>
        <line class="cls-1" x1="276.49" y1="121.95" x2="251.03" y2="164.63"/>
        <line class="cls-1" x1="292.07" y1="164.63" x2="276.49" y2="121.95"/>
      </g>
      <g>
        <line class="cls-1" x1=".5" y1="222.42" x2="82.57" y2="222.42"/>
        <line class="cls-1" x1=".5" y1="222.42" x2="41.53" y2="195.65"/>
        <line class="cls-1" x1="16.07" y1="222.42" x2="41.53" y2="195.65"/>
        <line class="cls-1" x1="82.57" y1="222.42" x2="41.53" y2="195.65"/>
        <line class="cls-1" x1="66.99" y1="222.42" x2="41.53" y2="195.65"/>
        <line class="cls-1" x1=".5" y1="265.1" x2="82.57" y2="265.1"/>
        <line class="cls-1" x1="41.53" y1="265.1" x2="41.53" y2="291.86"/>
        <line class="cls-1" x1=".5" y1="265.1" x2="41.53" y2="291.86"/>
        <line class="cls-1" x1="82.57" y1="265.1" x2="41.53" y2="291.86"/>
        <line class="cls-1" x1=".5" y1="222.42" x2=".5" y2="265.1"/>
        <line class="cls-1" x1="82.57" y1="265.1" x2="82.57" y2="222.42"/>
        <line class="cls-1" x1=".5" y1="265.1" x2="16.07" y2="222.42"/>
        <line class="cls-1" x1="41.53" y1="265.1" x2="16.07" y2="222.42"/>
        <line class="cls-1" x1="66.99" y1="222.42" x2="41.53" y2="265.1"/>
        <line class="cls-1" x1="82.57" y1="265.1" x2="66.99" y2="222.42"/>
      </g>
      <g>
        <line class="cls-1" x1="120.79" y1="104.59" x2="170.2" y2="104.59"/>
        <line class="cls-1" x1="120.79" y1="183.64" x2="170.2" y2="183.64"/>
        <line class="cls-1" x1="106.69" y1="144.11" x2="184.3" y2="144.11"/>
        <line class="cls-1" x1="120.79" y1="104.59" x2="106.69" y2="144.11"/>
        <line class="cls-1" x1="184.3" y1="144.11" x2="170.2" y2="104.59"/>
        <line class="cls-1" x1="170.2" y1="183.64" x2="184.3" y2="144.11"/>
        <line class="cls-1" x1="120.79" y1="183.64" x2="106.69" y2="144.11"/>
        <line class="cls-1" x1="120.79" y1="104.59" x2="184.3" y2="144.11"/>
        <line class="cls-1" x1="106.69" y1="144.11" x2="170.2" y2="104.59"/>
        <line class="cls-1" x1="184.3" y1="144.11" x2="120.79" y2="183.64"/>
        <line class="cls-1" x1="106.69" y1="144.11" x2="170.2" y2="183.64"/>
        <line class="cls-1" x1="145.49" y1="119.96" x2="145.49" y2="168.26"/>
      </g>
      <g>
        <line class="cls-1" x1="17.31" y1="105.75" x2="66.72" y2="105.75"/>
        <line class="cls-1" x1="17.31" y1="180.24" x2="66.72" y2="180.24"/>
        <line class="cls-1" x1="17.31" y1="105.75" x2="2.21" y2="134.44"/>
        <line class="cls-1" x1="17.31" y1="180.24" x2="2.21" y2="151.22"/>
        <line class="cls-1" x1="2.21" y1="134.44" x2="2.21" y2="151.22"/>
        <line class="cls-1" x1="66.72" y1="105.75" x2="81.81" y2="134.44"/>
        <line class="cls-1" x1="66.72" y1="180.24" x2="81.81" y2="151.22"/>
        <line class="cls-1" x1="81.81" y1="134.44" x2="81.81" y2="151.22"/>
        <line class="cls-1" x1="42.01" y1="105.75" x2="42.01" y2="180.24"/>
        <line class="cls-1" x1="66.72" y1="105.75" x2="42.01" y2="134.44"/>
        <line class="cls-1" x1="66.72" y1="180.24" x2="42.01" y2="151.22"/>
        <line class="cls-1" x1="81.81" y1="134.44" x2="42.01" y2="151.22"/>
        <line class="cls-1" x1="81.81" y1="151.22" x2="42.01" y2="134.44"/>
        <line class="cls-1" x1="42.01" y1="105.75" x2="81.81" y2="134.44"/>
        <line class="cls-1" x1="81.81" y1="151.22" x2="42.01" y2="180.24"/>
        <line class="cls-1" x1="66.72" y1="105.75" x2="81.81" y2="151.22"/>
        <line class="cls-1" x1="66.72" y1="180.24" x2="81.81" y2="134.44"/>
        <line class="cls-1" x1="17.31" y1="105.75" x2="42.01" y2="134.44"/>
        <line class="cls-1" x1="17.31" y1="180.24" x2="42.01" y2="151.22"/>
        <line class="cls-1" x1="2.21" y1="134.44" x2="42.01" y2="151.22"/>
        <line class="cls-1" x1="2.21" y1="151.22" x2="42.01" y2="134.44"/>
        <line class="cls-1" x1="42.01" y1="105.75" x2="2.21" y2="134.44"/>
        <line class="cls-1" x1="2.21" y1="151.22" x2="42.01" y2="180.24"/>
        <line class="cls-1" x1="17.31" y1="105.75" x2="2.21" y2="151.22"/>
        <line class="cls-1" x1="17.31" y1="180.24" x2="2.21" y2="134.44"/>
      </g>
    </g>
  </g>
</svg>