<?xml version="1.0" encoding="UTF-8"?>
<svg id="Layer_2" data-name="Layer 2" xmlns="http://www.w3.org/2000/svg" viewBox="0 0 211.44 205.68">
  <defs>
    <style>
      .cls-1 {
        stroke-dasharray: 0 2.83;
      }

      .cls-1, .cls-2 {
        fill: none;
        stroke: #231f20;
        stroke-linecap: round;
        stroke-linejoin: round;
        stroke-width: .99px;
      }
    </style>
  </defs>
  <g id="Layer_1-2" data-name="Layer 1">
    <g id="Icosahedron_3D" data-name="Icosahedron 3D">
      <g>
        <line class="cls-2" x1="71.61" y1=".5" x2="160.5" y2="67.16"/>
        <line class="cls-2" x1="23.16" y1="102.98" x2="160.5" y2="67.16"/>
        <line class="cls-2" x1="71.61" y1=".5" x2="23.16" y2="102.98"/>
        <line class="cls-2" x1=".5" y1="78.27" x2="71.61" y2=".5"/>
        <line class="cls-2" x1="24.05" y1="188.94" x2=".5" y2="78.27"/>
        <line class="cls-2" x1="23.16" y1="102.98" x2="24.05" y2="188.94"/>
        <line class="cls-2" x1="122.72" y1="199.16" x2="24.05" y2="188.94"/>
        <line class="cls-2" x1="131" y1="205.19" x2="24.05" y2="188.94"/>
        <line class="cls-2" x1="23.16" y1="102.98" x2="122.72" y2="199.16"/>
        <line class="cls-2" x1=".5" y1="78.27" x2="23.16" y2="102.98"/>
        <line class="cls-2" x1="160.5" y1="67.16" x2="122.72" y2="199.16"/>
        <line class="cls-2" x1="131" y1="205.19" x2="210.94" y2="138.27"/>
        <line class="cls-2" x1="122.72" y1="199.16" x2="210.94" y2="138.27"/>
        <line class="cls-2" x1="160.5" y1="67.16" x2="179.16" y2="30.05"/>
        <line class="cls-2" x1="210.94" y1="138.27" x2="179.16" y2="30.05"/>
        <line class="cls-2" x1="71.61" y1=".5" x2="179.16" y2="30.05"/>
      </g>
      <g>
        <line class="cls-2" x1="122.72" y1="199.16" x2="131" y2="205.19"/>
        <line class="cls-1" x1="88.05" y1="41.24" x2="179.16" y2="30.05"/>
        <line class="cls-1" x1="71.61" y1=".5" x2="88.05" y2="41.24"/>
        <line class="cls-1" x1=".5" y1="78.27" x2="88.05" y2="41.24"/>
        <line class="cls-1" x1="24.05" y1="188.94" x2="61.38" y2="139.91"/>
        <line class="cls-1" x1="210.94" y1="138.27" x2="160.05" y2="112.94"/>
        <line class="cls-1" x1="88.05" y1="41.24" x2="160.05" y2="112.94"/>
        <line class="cls-1" x1="61.38" y1="139.91" x2="88.05" y2="41.24"/>
        <line class="cls-1" x1="160.05" y1="112.94" x2="61.38" y2="139.91"/>
        <line class="cls-1" x1="179.16" y1="30.05" x2="160.05" y2="112.94"/>
        <line class="cls-1" x1="131" y1="205.19" x2="160.05" y2="112.94"/>
        <line class="cls-1" x1="210.94" y1="138.27" x2="160.5" y2="67.16"/>
        <line class="cls-1" x1="23.16" y1="102.98" x2="131" y2="205.19"/>
      </g>
    </g>
  </g>
</svg>