<?xml version="1.0" encoding="UTF-8"?>
<svg id="Layer_2" data-name="Layer 2" xmlns="http://www.w3.org/2000/svg" viewBox="0 0 88.65 99.17">
  <defs>
    <style>
      .cls-1 {
        fill: #201600;
      }
    </style>
  </defs>
  <g id="Layer_2_copy_2" data-name="Layer 2 copy 2">
    <path class="cls-1" d="M73.16,21.01c-1.47,.85-2.64,2.01-3.5,3.35l-16.15-9.33c.73-1.41,1.15-3.01,1.15-4.71,0-5.69-4.63-10.33-10.33-10.33s-10.33,4.63-10.33,10.33c0,1.7,.42,3.3,1.15,4.71l-16.15,9.33c-.86-1.34-2.03-2.5-3.5-3.35-4.93-2.85-11.26-1.15-14.11,3.78-2.85,4.93-1.15,11.26,3.78,14.11,1.47,.85,3.06,1.27,4.65,1.35v18.66c-1.59,.08-3.18,.51-4.65,1.36-4.93,2.85-6.63,9.18-3.78,14.11,1.91,3.31,5.39,5.16,8.96,5.16,1.75,0,3.52-.44,5.15-1.38,1.47-.85,2.64-2.01,3.5-3.35l16.15,9.33c-.73,1.41-1.15,3.01-1.15,4.71,0,5.69,4.63,10.33,10.33,10.33s10.33-4.63,10.33-10.33c0-1.7-.42-3.3-1.15-4.71l16.15-9.33c.86,1.34,2.03,2.5,3.5,3.35,1.59,.92,3.36,1.39,5.15,1.39,.9,0,1.8-.12,2.69-.36,2.66-.71,4.89-2.42,6.27-4.81,2.85-4.93,1.15-11.26-3.78-14.11-1.47-.85-3.06-1.28-4.65-1.36v-18.66c1.59-.08,3.18-.5,4.65-1.35,4.93-2.85,6.63-9.17,3.78-14.11-2.85-4.93-9.17-6.63-14.11-3.78Zm-4.02,4.23c-1.07,2.09-1.41,4.51-.92,6.85-1.2-1.08-2.63-1.87-4.23-2.3-2.5-.67-5.1-.38-7.38,.8l-6.7-11.6c1.23-.8,2.28-1.84,3.07-3.07l16.15,9.33Zm-3.35,43.46c.89-.42,1.7-.97,2.43-1.63-.11,.54-.18,1.08-.21,1.63h-2.22Zm-11.17,0c-.03-.55-.09-1.09-.2-1.62,.53,.47,1.11,.9,1.73,1.26,.24,.14,.49,.24,.73,.36h-2.27Zm-22.87,0c.24-.12,.49-.22,.73-.36,.63-.36,1.21-.79,1.73-1.26-.11,.53-.17,1.07-.2,1.62h-2.27Zm-11.13,0c-.03-.54-.09-1.09-.21-1.63,.73,.65,1.54,1.2,2.43,1.63h-2.22ZM45.78,11.76l6.33,3.65c-.7,1.07-1.62,1.99-2.7,2.7l-3.65-6.33s.02-.01,.02-.02Zm-2.88,.02l-3.65,6.33c-1.07-.7-1.99-1.62-2.7-2.7l6.33-3.65s.01,.02,.02,.02Zm.88,.52c.18,.05,.36,.08,.54,.08s.36-.02,.53-.07c0,0,.01,0,.02,0l3.65,6.32c-1.26,.64-2.69,1.01-4.2,1.01s-2.93-.37-4.2-1.01l3.65-6.32Zm.55,55.9h0s0,0,0,0h0Zm.54-.94c-.35-.1-.72-.11-1.07-.01,0,0-.01,0-.02,0l-3.65-6.32c1.26-.64,2.69-1.01,4.2-1.01s2.93,.37,4.2,1.01l-3.65,6.33Zm-25.83-31.68l6.33,3.65c-.2,.71,0,1.48,.53,2l-3.65,6.33c-3.96-2.58-5.35-7.76-3.21-11.98Zm17.57,4.71c-.08,1.41-.47,2.83-1.22,4.14-.76,1.31-1.79,2.36-2.97,3.13l-3.65-6.33c.13-.13,.25-.27,.34-.43,.09-.16,.15-.34,.2-.51h7.31Zm22.74,0c.09,.35,.28,.68,.55,.94l-3.65,6.33c-1.19-.77-2.22-1.82-2.97-3.13-.76-1.31-1.15-2.73-1.22-4.14h7.3Zm-32.57,1.46c.18,.05,.36,.08,.54,.08s.36-.02,.53-.07c0,0,.01,0,.02,0l3.65,6.32c-2.57,1.29-5.68,1.37-8.39,0l3.65-6.32Zm5.25,7.2l1.13,1.96c-.83-.57-1.74-1.01-2.69-1.31,.54-.17,1.06-.38,1.56-.64Zm7.85-8.66c-.9,.43-1.72,.99-2.46,1.65,.12-.55,.18-1.1,.21-1.65h2.25Zm-5.84,10.1l-1.13-1.95c.46-.3,.9-.63,1.32-1-.15,.7-.23,1.42-.23,2.16,0,.27,.02,.53,.04,.79Zm.98-.79c0-5.13,4.17-9.3,9.3-9.3s9.3,4.17,9.3,9.3-4.17,9.3-9.3,9.3-9.3-4.17-9.3-9.3Zm16-9.3c.03,.55,.09,1.1,.21,1.65-.73-.66-1.56-1.22-2.46-1.65h2.25Zm3.4,7.14c.41,.37,.85,.71,1.32,1l-1.13,1.95c.02-.26,.04-.52,.04-.79,0-.74-.08-1.46-.23-2.16Zm2.2,1.52c.5,.26,1.02,.47,1.56,.64-.96,.31-1.86,.75-2.68,1.3l1.12-1.94Zm.51-.88l3.65-6.32c.18,.05,.36,.08,.54,.08s.36-.02,.53-.07c0,0,.01,0,.02,0l3.65,6.32c-2.72,1.38-5.83,1.3-8.39,0Zm-8.35-8.81c.91-.43,1.74-1,2.47-1.66-.12,.55-.2,1.1-.23,1.66h-2.25Zm4.85-9.3c0,5.13-4.17,9.3-9.3,9.3s-9.3-4.17-9.3-9.3,4.17-9.3,9.3-9.3,9.3,4.17,9.3,9.3Zm-16.23,7.64c.74,.67,1.57,1.23,2.47,1.66h-2.25c-.03-.56-.11-1.12-.23-1.66Zm-14.78,11.34c.5,.26,1.01,.47,1.53,.64-.68,.22-1.35,.51-1.99,.88-.23,.13-.45,.28-.66,.43l1.12-1.95Zm-5.4,12.6c-.41-.37-.85-.7-1.31-.99l1.11-1.92c-.08,.98,0,1.96,.2,2.92Zm1.11-4.55c.64-2.4,2.18-4.41,4.33-5.65,4.44-2.56,10.14-1.04,12.71,3.41,1.24,2.15,1.57,4.66,.93,7.06-.64,2.4-2.18,4.41-4.33,5.65-2.15,1.24-4.66,1.57-7.06,.93-2.4-.64-4.41-2.18-5.65-4.34-1.24-2.15-1.57-4.66-.93-7.06Zm19.28,1.62l1.12,1.93c-.47,.3-.91,.65-1.32,1.02,.21-.98,.28-1.97,.21-2.95Zm.89-.51c.8,.55,1.69,.99,2.63,1.3-.53,.17-1.03,.39-1.52,.64l-1.12-1.93Zm9.02,1.3c.94-.31,1.83-.75,2.63-1.3l-1.12,1.93c-.48-.25-.99-.46-1.52-.64Zm3.52-.79c-.07,.98,0,1.97,.21,2.95-.41-.37-.85-.72-1.32-1.02l1.12-1.93Zm2.23-3.87c1.24-2.15,3.25-3.69,5.65-4.34,.8-.21,1.61-.32,2.41-.32,0,0,.01,0,.02,0,0,0,0,0,.01,0,1.61,0,3.19,.42,4.62,1.25,2.15,1.24,3.69,3.25,4.33,5.65,.64,2.4,.31,4.91-.93,7.06-1.24,2.15-3.25,3.69-5.65,4.34-2.4,.64-4.91,.31-7.06-.93-2.15-1.24-3.69-3.25-4.33-5.65-.64-2.4-.31-4.91,.93-7.06Zm18.35,3.88l1.11,1.92c-.46,.29-.9,.62-1.31,.99,.2-.96,.27-1.94,.2-2.92Zm-5.13-8.17c-.64-.37-1.31-.66-1.99-.88,.52-.17,1.03-.38,1.53-.64l1.12,1.95c-.22-.15-.43-.29-.66-.43Zm-3.73-9.24c.13-.13,.25-.27,.34-.43,.27-.47,.35-1.02,.2-1.55,0,0,0-.01,0-.02l6.32-3.65c2.14,4.22,.75,9.39-3.21,11.98l-3.65-6.33Zm.02-2.88c-.13-.13-.27-.25-.43-.34-.49-.28-1.06-.34-1.57-.2l-3.65-6.32c1.31-.67,2.73-1.02,4.18-1.02,.81,0,1.62,.11,2.42,.32,2.23,.6,4.12,1.98,5.37,3.9l-6.33,3.65Zm-2.88-.02c-.13,.13-.25,.27-.34,.43-.09,.16-.15,.34-.2,.51h-7.31c.16-2.87,1.65-5.6,4.2-7.27l3.65,6.33Zm-5.47-6.23c.15-.69,.22-1.4,.22-2.13,0-.27-.02-.53-.04-.79l1.12,1.94c-.46,.3-.9,.62-1.3,.98Zm-6.91-11.95c.53-.17,1.03-.39,1.52-.64l1.12,1.93c-.8-.55-1.69-.99-2.63-1.3Zm-6.39,0c-.94,.31-1.83,.75-2.63,1.3l1.12-1.93c.48,.25,.99,.46,1.52,.64Zm-6.91,11.95c-.4-.36-.84-.68-1.3-.98l1.12-1.94c-.02,.26-.04,.52-.04,.79,0,.73,.08,1.44,.22,2.13Zm2.38,7.17h-7.3s0-.01,0-.02c-.1-.36-.29-.67-.55-.92l3.65-6.33c2.55,1.66,4.04,4.4,4.2,7.27Zm-8.74-1.45c-.71-.2-1.48,0-2,.53l-6.33-3.65c1.25-1.92,3.14-3.31,5.37-3.9,.8-.21,1.62-.32,2.42-.32,1.44,0,2.86,.36,4.18,1.02l-3.65,6.32Zm-9.25-3.66l-6.33-3.65c.1-.35,.11-.72,.01-1.07,0,0,0-.01,0-.02l6.32-3.65c1.29,2.57,1.37,5.68,0,8.39Zm-7.78-2.22c.35-.09,.68-.28,.94-.55l6.32,3.65c-1.66,2.55-4.4,4.04-7.27,4.2v-7.3Zm6.4,5.67c-.88,4.1,.83,8.46,4.5,10.83l-6.7,11.6c-1.3-.67-2.74-1.05-4.2-1.12v-18.67c2.35-.12,4.62-1.04,6.4-2.64Zm-6.36,29.65s-.02,0-.03,0v-7.31c1.28,.07,2.54,.41,3.69,.99l-3.65,6.33Zm1.43,2.48h7.31c-.07,1.28-.41,2.54-.99,3.69l-6.33-3.65s0-.02,0-.03Zm0-1.02c-.09-.35-.28-.68-.55-.94l3.65-6.33c1.19,.77,2.22,1.82,2.97,3.13,.76,1.31,1.15,2.73,1.22,4.14h-7.3Zm26.94-7.27l3.65,6.33c-.13,.13-.25,.27-.34,.43-.09,.16-.15,.34-.2,.51h-7.31c.17-3.04,1.79-5.7,4.19-7.27Zm3.11,8.29s0,.01,0,.02c.14,.53,.48,.97,.95,1.24,.16,.09,.34,.16,.51,.21v7.3c-4.72-.26-8.51-4.05-8.77-8.77h7.3Zm1.47,17.14c-.35,.09-.68,.28-.94,.55l-6.33-3.65c1.58-2.4,4.23-4.03,7.27-4.19v7.3Zm1.53,.21c-.16-.09-.34-.15-.51-.2v-7.31c3.04,.17,5.7,1.79,7.27,4.19l-6.33,3.65c-.13-.13-.27-.25-.43-.34Zm-.51-15.88c.51-.13,.97-.46,1.26-.96,.09-.16,.15-.34,.2-.51h7.31c-.26,4.72-4.05,8.51-8.77,8.77v-7.3Zm1.47-2.49c-.09-.35-.28-.68-.55-.94l3.65-6.33c2.4,1.58,4.03,4.23,4.19,7.27h-7.3Zm23.97-4.14c.76-1.31,1.79-2.35,2.98-3.12l3.65,6.32c-.13,.13-.25,.27-.34,.43-.09,.16-.15,.34-.2,.51h-7.31c.08-1.41,.47-2.83,1.22-4.14Zm7.51,2.68l-3.65-6.31c1.15-.58,2.4-.91,3.68-.99v7.29s-.02,0-.03,0Zm-1.43,2.48s0,.01,0,.02c0,0,0,.01,0,.02l-6.32,3.65c-.58-1.15-.92-2.4-.99-3.69h7.3Zm-2.73-9.69l-6.7-11.6c3.67-2.37,5.38-6.73,4.5-10.83,1.78,1.6,4.05,2.52,6.4,2.64v18.67c-1.46,.08-2.89,.46-4.2,1.12Zm-3.07-25l6.33-3.65c.13,.13,.27,.25,.43,.34,.16,.09,.34,.16,.51,.21v7.3c-2.87-.16-5.6-1.65-7.27-4.2Zm5.8-4.55s0,.01,0,.02l-6.32,3.65c-1.38-2.72-1.3-5.83,0-8.39l6.33,3.65c-.1,.35-.11,.72-.01,1.07ZM35.02,10.33c0-5.13,4.17-9.3,9.3-9.3s9.3,4.17,9.3,9.3c0,1.51-.37,2.93-1.01,4.2l-6.33-3.65c.24-.88-.12-1.84-.94-2.32h0c-.47-.27-1.02-.35-1.55-.2-.53,.14-.97,.48-1.24,.95-.27,.47-.35,1.02-.2,1.55,0,0,0,.01,0,.02l-6.32,3.65c-.64-1.26-1.01-2.69-1.01-4.2Zm.64,5.59c.8,1.23,1.84,2.28,3.07,3.07l-6.7,11.6c-2.28-1.17-4.88-1.47-7.38-.8-1.6,.43-3.03,1.22-4.23,2.3,.49-2.34,.15-4.76-.92-6.85l16.15-9.33ZM5.67,38.01C1.23,35.45-.3,29.75,2.27,25.3c1.72-2.98,4.85-4.65,8.07-4.65,1.58,0,3.17,.4,4.64,1.24,1.31,.76,2.36,1.79,3.13,2.97l-6.33,3.65c-.13-.13-.27-.25-.43-.34-.98-.56-2.23-.23-2.79,.75-.27,.47-.35,1.02-.2,1.55,.14,.53,.48,.97,.95,1.24,.16,.09,.34,.16,.51,.21v7.3c-1.41-.08-2.83-.47-4.14-1.22Zm9.3,39.26c-4.44,2.56-10.14,1.04-12.71-3.41-2.56-4.44-1.04-10.14,3.41-12.71,1.31-.76,2.73-1.15,4.14-1.22v7.3c-.51,.13-.97,.46-1.26,.96-.27,.47-.35,1.02-.2,1.55,.14,.53,.48,.97,.95,1.24,.32,.19,.67,.27,1.02,.27,.54,0,1.07-.22,1.46-.61l6.33,3.65c-.77,1.19-1.82,2.22-3.13,2.97Zm4.53-3.35c.67-1.3,1.05-2.74,1.12-4.2h6.65s.04,0,.06,0,.04,0,.06,0h6.62c.21,4.35,3.13,8.01,7.11,9.3-2.27,.74-4.2,2.25-5.47,4.22l-16.16-9.33Zm34.13,14.92c0,5.13-4.17,9.3-9.3,9.3s-9.3-4.17-9.3-9.3c0-1.51,.37-2.93,1.01-4.2l6.33,3.65c-.24,.88,.12,1.84,.94,2.31,.32,.18,.67,.27,1.02,.27,.18,0,.36-.02,.53-.07,.53-.14,.97-.48,1.24-.95,.27-.47,.35-1.02,.2-1.55,0,0,0-.01,0-.02l6.32-3.65c.64,1.26,1.01,2.69,1.01,4.2Zm-.64-5.59c-1.28-1.97-3.2-3.48-5.47-4.22,3.98-1.3,6.89-4.95,7.11-9.3h6.62s.04,0,.06,0,.04,0,.06,0h6.65c.07,1.46,.46,2.89,1.12,4.2l-16.16,9.33Zm29.99-22.09c4.44,2.57,5.97,8.27,3.41,12.71-1.24,2.15-3.25,3.69-5.65,4.34-2.4,.64-4.91,.31-7.06-.93-1.31-.76-2.36-1.79-3.13-2.97l6.33-3.65c.13,.13,.27,.25,.43,.34,.32,.19,.67,.27,1.02,.27,.71,0,1.4-.37,1.77-1.02,.56-.98,.23-2.23-.75-2.79h0c-.16-.09-.34-.15-.51-.2v-7.3c1.41,.08,2.83,.46,4.14,1.21Zm0-23.15c-1.31,.76-2.73,1.15-4.14,1.22v-7.3c.51-.13,.97-.46,1.26-.96,.56-.98,.23-2.23-.75-2.79-.82-.47-1.84-.31-2.48,.34l-6.33-3.65c.77-1.19,1.82-2.22,3.13-2.97,4.44-2.57,10.14-1.04,12.71,3.41,2.57,4.44,1.04,10.14-3.41,12.71Z"/>
  </g>
</svg>