<?xml version="1.0" encoding="UTF-8"?>
<svg id="Layer_2" data-name="Layer 2" xmlns="http://www.w3.org/2000/svg" viewBox="0 0 88.65 99.17">
  <defs>
    <style>
      .cls-1 {
        fill: #201600;
      }
    </style>
  </defs>
  <g id="Layer_2_copy_2" data-name="Layer 2 copy 2">
    <path class="cls-1" d="M83.49,38.9c4.93-2.85,6.63-9.17,3.78-14.11-2.85-4.93-9.17-6.63-14.11-3.78-1.47,.85-2.64,2.01-3.5,3.35l-16.15-9.33c.73-1.41,1.15-3.01,1.15-4.71,0-5.69-4.63-10.33-10.33-10.33s-10.33,4.63-10.33,10.33c0,1.7,.42,3.3,1.15,4.71l-16.15,9.33c-.86-1.34-2.03-2.5-3.5-3.35-4.93-2.85-11.26-1.15-14.11,3.78-2.85,4.93-1.15,11.26,3.78,14.11,1.47,.85,3.06,1.27,4.65,1.35v18.66c-1.59,.08-3.18,.51-4.65,1.36-4.93,2.85-6.63,9.18-3.78,14.11,1.91,3.31,5.39,5.16,8.96,5.16,1.75,0,3.52-.44,5.15-1.38,1.47-.85,2.64-2.01,3.5-3.35l16.15,9.33c-.73,1.41-1.15,3.01-1.15,4.71,0,5.69,4.63,10.33,10.33,10.33s10.33-4.63,10.33-10.33c0-1.7-.42-3.3-1.15-4.71l16.15-9.33c.86,1.34,2.03,2.5,3.5,3.35,1.59,.92,3.36,1.39,5.15,1.39,.9,0,1.8-.12,2.69-.36,2.66-.71,4.89-2.42,6.27-4.81,2.85-4.93,1.15-11.26-3.78-14.11-1.47-.85-3.06-1.28-4.65-1.36v-18.66c1.59-.08,3.18-.5,4.65-1.35Zm-9.82-17c4.44-2.56,10.14-1.04,12.71,3.41,2.57,4.44,1.04,10.14-3.41,12.71-1.31,.76-2.73,1.15-4.14,1.22v-7.3c.51-.13,.97-.46,1.26-.96,.56-.98,.23-2.23-.75-2.79-.82-.47-1.84-.3-2.48,.34l-6.33-3.65c.77-1.19,1.82-2.22,3.13-2.97Zm-17,9.82c1.43-.83,3.02-1.25,4.64-1.25,.81,0,1.62,.11,2.42,.32,2.23,.6,4.12,1.98,5.37,3.9l-6.33,3.65c-.13-.13-.27-.25-.43-.34-.82-.47-1.84-.3-2.47,.34l-6.33-3.65c.77-1.19,1.82-2.22,3.13-2.97Zm19.68-1.23s0,.01,0,.02l-6.32,3.65c-1.38-2.72-1.3-5.83,0-8.39l6.33,3.65c-.1,.35-.11,.71-.01,1.07Zm.52,37.3l-6.32-3.65c1.66-2.55,4.39-4.03,7.26-4.19v7.29c-.35,.09-.68,.28-.94,.55Zm-7.26-4.19l-7.78-4.49v-8.98c1.44,.08,2.85,.48,4.14,1.22,2.15,1.24,3.69,3.25,4.33,5.65,.6,2.23,.34,4.56-.7,6.6Zm-50.58,0c-1.04-2.05-1.29-4.37-.7-6.6,.64-2.4,2.18-4.41,4.33-5.65,1.31-.76,2.73-1.15,4.14-1.22v8.98l-7.78,4.49Zm-8.2,4.73h0s0,0,0,0h0Zm.51-.89h0c-.16-.09-.34-.15-.51-.2v-7.31c2.87,.16,5.6,1.65,7.27,4.2l-6.33,3.65c-.13-.13-.27-.25-.43-.34Zm7.69-31.87l6.33,3.65c-.24,.88,.12,1.84,.94,2.31,.16,.09,.33,.16,.51,.21v7.3c-1.41-.08-2.83-.47-4.14-1.22-4.29-2.48-5.85-7.88-3.64-12.25Zm34.51,18.74c1.25-1.92,3.14-3.31,5.37-3.9,.63-.17,1.26-.25,1.9-.29v8.39l-7.27-4.2Zm-18.44-9.47c-1.66,2.55-4.4,4.04-7.27,4.2v-7.3s.01,0,.02,0c.36-.1,.67-.29,.92-.55l6.33,3.65Zm25.71-4.2h0s0,0,0,0h0Zm-.51,.89c.16,.09,.34,.16,.51,.21v7.3c-2.87-.16-5.6-1.65-7.27-4.2l6.33-3.65c.13,.13,.26,.25,.43,.34Zm-17.95,8.59l-6.32,3.65c-.64-1.26-1.01-2.69-1.01-4.2s.37-2.93,1.01-4.2l6.33,3.65c-.1,.36-.1,.74,0,1.09Zm3.94-1.08s0-.01,0-.02l6.32-3.65c.64,1.26,1.01,2.69,1.01,4.2s-.37,2.93-1.01,4.2l-6.33-3.65c.1-.35,.11-.71,.01-1.07Zm-.52-.9c-.13-.13-.27-.25-.43-.34-.16-.09-.34-.15-.51-.2v-7.31c3.04,.17,5.7,1.79,7.27,4.19l-6.33,3.65Zm-1.96-.55s-.01,0-.02,0c-.36,.1-.67,.29-.92,.55l-6.33-3.65c1.58-2.4,4.23-4.03,7.27-4.19v7.3Zm-.94,3.41c.13,.13,.26,.25,.43,.34,.16,.09,.34,.16,.51,.21v7.3c-3.04-.17-5.7-1.79-7.27-4.19l6.33-3.66Zm1.96,.55c.35-.09,.68-.28,.94-.55l6.33,3.65c-1.58,2.4-4.23,4.03-7.27,4.19v-7.3Zm9.58-4.14c1.1,.99,2.38,1.71,3.76,2.16-1.41,.45-2.68,1.18-3.75,2.14,.15-.69,.22-1.4,.22-2.14s-.08-1.46-.23-2.16Zm-3.19-5.49c-1.06-.96-2.32-1.71-3.71-2.16,1.4-.46,2.66-1.21,3.73-2.17-.31,1.41-.32,2.89-.02,4.34Zm-13.81,0c.31-1.45,.29-2.92-.02-4.33,1.07,.97,2.33,1.72,3.73,2.17-1.39,.45-2.65,1.2-3.71,2.16Zm-3.19,5.49c-.15,.7-.23,1.42-.23,2.16s.08,1.45,.23,2.14c-1.1-.99-2.38-1.7-3.76-2.14,1.38-.44,2.66-1.17,3.77-2.16Zm3.19,9.82c1.06,.96,2.32,1.7,3.71,2.16-1.4,.46-2.66,1.21-3.72,2.17,.31-1.45,.32-2.91,.01-4.33Zm13.81,0c-.3,1.41-.3,2.88,.01,4.33-1.07-.96-2.33-1.71-3.72-2.17,1.39-.45,2.65-1.2,3.71-2.16Zm8.13-16.93l-6.32,3.65c-1.38-2.72-1.3-5.83,0-8.4l6.33,3.65c-.1,.36-.1,.74,0,1.09Zm-14.52-1.08v-8.39l7.27,4.2c-1.57,2.4-4.23,4.03-7.27,4.2Zm-1.02,0c-3.04-.17-5.7-1.79-7.27-4.2l7.27-4.2v8.39Zm-8.2,4.73l-6.33-3.65c.1-.35,.11-.72,.01-1.07,0,0,0-.01,0-.02l6.32-3.65c1.29,2.57,1.37,5.68,0,8.4Zm-7.78,6.15c2.87,.16,5.6,1.65,7.27,4.2l-7.27,4.2v-8.4Zm7.78,5.08c1.04,2.05,1.29,4.37,.7,6.6-.17,.63-.4,1.23-.69,1.8l-7.28-4.2,7.27-4.2Zm8.2,4.73v7.3s-.01,0-.02,0c-.36,.1-.67,.29-.92,.55l-6.33-3.65c1.57-2.4,4.23-4.03,7.27-4.2Zm1.02,8.39h0s0,0,0,0h0Zm.51-.89h0c-.16-.09-.34-.15-.51-.2v-7.31c3.04,.17,5.7,1.79,7.27,4.2l-6.33,3.65c-.13-.13-.27-.25-.43-.34Zm6.99-5.64c-.6-2.23-.34-4.56,.7-6.6l7.27,4.2-7.28,4.2c-.29-.57-.52-1.17-.69-1.8Zm9.5-20.06s.01,0,.02,0c.53-.14,.97-.48,1.24-.95,.27-.47,.35-1.02,.2-1.55,0,0,0-.01,0-.02l6.32-3.65c2.21,4.37,.65,9.77-3.64,12.25-1.31,.76-2.73,1.15-4.14,1.22v-7.3Zm-9.22-7.6l-7.78-4.49v-8.98c4.89,.27,8.79,4.32,8.79,9.28,0,1.51-.37,2.93-1.01,4.2Zm-7.78-21.85s.01,0,.02,0c.36-.1,.67-.29,.92-.55l6.33,3.65c-1.58,2.4-4.23,4.03-7.27,4.19v-7.3Zm-1.53-.21c.16,.09,.33,.16,.51,.21v7.3c-3.04-.17-5.7-1.79-7.27-4.19l6.33-3.65c.13,.13,.27,.25,.43,.34Zm.51,17.56l-7.78,4.49c-.64-1.26-1.01-2.69-1.01-4.2,0-4.96,3.9-9.01,8.79-9.28v8.98Zm-15.04,8.68c-.13-.13-.27-.25-.43-.34-.82-.47-1.84-.3-2.48,.34l-6.33-3.65c1.25-1.92,3.14-3.31,5.37-3.9,.8-.21,1.62-.32,2.42-.32,1.61,0,3.2,.42,4.64,1.25,1.31,.76,2.36,1.79,3.13,2.97l-6.33,3.65Zm-10.16-4.19l-6.33-3.65c.1-.35,.11-.72,.01-1.07,0,0,0-.01,0-.02l6.32-3.65c1.29,2.57,1.37,5.68,0,8.39Zm-7.78-2.22c.35-.09,.68-.28,.94-.55l6.32,3.65c-1.66,2.55-4.4,4.04-7.27,4.2v-7.3Zm6.4,5.67c-.91,4.26,.96,8.81,4.93,11.11,.64,.37,1.31,.64,1.99,.86-.68,.22-1.35,.51-1.99,.88-2.39,1.38-4.1,3.61-4.81,6.27-.43,1.6-.46,3.24-.12,4.81-1.78-1.6-4.05-2.51-6.39-2.63v-18.67c2.35-.12,4.62-1.04,6.4-2.64Zm-4.94,31.06l6.32-3.65c1.38,2.72,1.3,5.83,0,8.39l-6.33-3.65c.1-.36,.1-.74,0-1.09Zm15.03-8.68l7.79,4.5c-.79,1.21-1.85,2.23-3.13,2.97-2.15,1.24-4.66,1.57-7.06,.93-2.23-.6-4.12-1.98-5.37-3.9l7.78-4.49Zm8.71,5.03l6.33,3.65c-.1,.35-.11,.71-.01,1.07,.14,.53,.48,.97,.95,1.24,.16,.09,.33,.16,.51,.21v7.3c-4.89-.27-8.79-4.32-8.79-9.28,0-1.51,.37-2.93,1.01-4.2Zm7.78,21.85s-.01,0-.02,0c-.36,.1-.67,.29-.92,.55l-6.33-3.65c1.58-2.4,4.23-4.03,7.27-4.19v7.3Zm1.53,.21c-.16-.09-.34-.15-.51-.2v-7.31c3.04,.17,5.7,1.79,7.27,4.19l-6.33,3.65c-.13-.13-.27-.25-.43-.34Zm-.51-15.88s.01,0,.02,0c.53-.14,.97-.48,1.24-.95,.28-.49,.34-1.06,.2-1.57l6.32-3.65c.64,1.26,1.01,2.69,1.01,4.2,0,4.96-3.9,9.01-8.79,9.28v-7.3Zm16.49-11.2l7.78,4.49c-1.25,1.92-3.14,3.31-5.37,3.9-2.4,.64-4.91,.31-7.06-.93-1.29-.74-2.35-1.76-3.13-2.97l7.79-4.5Zm8.71,5.03l6.33,3.65c-.1,.35-.11,.71-.01,1.07,0,0,0,.01,0,.02l-6.32,3.65c-1.29-2.57-1.37-5.68,0-8.39Zm1.39-3.48c.34-1.57,.3-3.21-.12-4.81-.71-2.66-2.42-4.89-4.81-6.27-.64-.37-1.31-.66-1.99-.88,.68-.22,1.35-.49,1.99-.86,3.97-2.29,5.84-6.85,4.93-11.11,1.78,1.6,4.05,2.52,6.4,2.64v18.67c-2.34,.12-4.61,1.03-6.39,2.63Zm-.88-26.5l6.33-3.65c.13,.13,.27,.25,.43,.34,.16,.09,.34,.16,.51,.21v7.3c-2.87-.16-5.6-1.65-7.27-4.2Zm-1.4-9.79c-1.07,2.09-1.41,4.51-.92,6.85-1.2-1.08-2.63-1.87-4.23-2.3-2.66-.71-5.45-.35-7.84,1.03-.63,.37-1.21,.79-1.73,1.26,.15-.69,.22-1.4,.22-2.13,0-4.58-3-8.47-7.13-9.82,2.27-.74,4.2-2.25,5.47-4.22l16.15,9.33ZM35.02,10.33c0-5.13,4.17-9.3,9.3-9.3s9.3,4.17,9.3,9.3c0,1.51-.37,2.93-1.01,4.2l-6.33-3.65c.24-.88-.12-1.84-.94-2.31h0c-.47-.27-1.02-.35-1.55-.2-.53,.14-.97,.48-1.24,.95-.27,.47-.35,1.02-.2,1.55,0,0,0,.01,0,.02l-6.32,3.65c-.64-1.26-1.01-2.69-1.01-4.2Zm.64,5.59c1.28,1.97,3.2,3.48,5.47,4.22-4.13,1.35-7.13,5.24-7.13,9.82,0,.73,.08,1.44,.22,2.13-.52-.47-1.1-.89-1.73-1.26-2.39-1.38-5.17-1.75-7.84-1.03-1.6,.43-3.03,1.22-4.23,2.3,.49-2.34,.15-4.76-.92-6.85l16.15-9.33ZM5.67,38.01C1.23,35.45-.3,29.75,2.27,25.3c1.72-2.98,4.85-4.65,8.07-4.65,1.58,0,3.17,.4,4.64,1.24,1.31,.76,2.36,1.79,3.13,2.97l-6.33,3.65c-.13-.13-.27-.25-.43-.34-.98-.56-2.23-.23-2.79,.75-.27,.47-.35,1.02-.2,1.55,.14,.53,.48,.97,.95,1.24,.16,.09,.34,.16,.51,.21v7.3c-1.41-.08-2.83-.47-4.14-1.22Zm9.3,39.26c-4.44,2.56-10.14,1.04-12.71-3.41-2.56-4.44-1.04-10.14,3.41-12.71,1.31-.76,2.73-1.15,4.14-1.22v7.3c-.51,.13-.97,.46-1.26,.95-.27,.47-.35,1.02-.2,1.55,.14,.53,.48,.97,.95,1.24,.32,.19,.67,.27,1.02,.27,.54,0,1.07-.22,1.46-.61l6.33,3.65c-.77,1.19-1.82,2.22-3.13,2.97Zm4.53-3.35c1.07-2.09,1.41-4.51,.92-6.85,1.2,1.08,2.63,1.87,4.23,2.3,.89,.24,1.79,.36,2.69,.36,1.79,0,3.56-.47,5.15-1.39,.63-.36,1.21-.79,1.73-1.26-.15,.69-.22,1.4-.22,2.13,0,4.58,3,8.47,7.13,9.82-2.27,.74-4.2,2.25-5.47,4.22l-16.16-9.33Zm34.13,14.92c0,5.13-4.17,9.3-9.3,9.3s-9.3-4.17-9.3-9.3c0-1.51,.37-2.93,1.01-4.2l6.33,3.65c-.24,.88,.12,1.84,.94,2.31,.32,.18,.66,.27,1.02,.27,.18,0,.36-.02,.53-.07,.53-.14,.97-.48,1.24-.95,.27-.47,.35-1.02,.2-1.55,0,0,0-.01,0-.02l6.32-3.65c.64,1.26,1.01,2.69,1.01,4.2Zm-.64-5.59c-1.28-1.97-3.2-3.48-5.47-4.22,4.13-1.35,7.13-5.24,7.13-9.82,0-.73-.08-1.44-.22-2.13,.53,.47,1.11,.9,1.73,1.26,1.59,.92,3.36,1.39,5.15,1.39,.9,0,1.8-.12,2.69-.36,1.6-.43,3.03-1.22,4.23-2.3-.49,2.34-.15,4.76,.92,6.85l-16.16,9.33Zm29.99-22.09c4.44,2.57,5.97,8.27,3.41,12.71-1.24,2.15-3.25,3.69-5.65,4.34-2.4,.64-4.91,.31-7.06-.93-1.31-.76-2.36-1.79-3.13-2.97l6.33-3.65c.13,.13,.27,.25,.43,.34,.32,.18,.67,.28,1.02,.28,.18,0,.36-.02,.53-.07,.53-.14,.97-.48,1.24-.95,.56-.98,.23-2.23-.75-2.79h0c-.16-.09-.34-.15-.51-.2v-7.3c1.41,.08,2.83,.46,4.14,1.21Z"/>
  </g>
</svg>