<?xml version="1.0" encoding="UTF-8"?>
<svg id="Layer_2" data-name="Layer 2" xmlns="http://www.w3.org/2000/svg" viewBox="0 0 256.35 270.9">
  <defs>
    <style>
      .cls-1 {
        stroke-dasharray: 0 2.83;
      }

      .cls-1, .cls-2 {
        fill: none;
        stroke: #231f20;
        stroke-linecap: round;
        stroke-linejoin: round;
        stroke-width: .99px;
      }
    </style>
  </defs>
  <g id="Layer_1-2" data-name="Layer 1">
    <g id="Cube_3D" data-name="Cube 3D">
      <g>
        <line class="cls-2" x1="47.12" y1="54.3" x2="48.92" y2=".5"/>
        <line class="cls-2" x1="140.08" y1="40.85" x2="48.92" y2=".5"/>
        <line class="cls-2" x1="159.8" y1="98.83" x2="47.12" y2="54.3"/>
        <line class="cls-2" x1="140.08" y1="40.85" x2="159.8" y2="98.83"/>
        <line class="cls-2" x1="9.46" y1="82.69" x2="48.92" y2=".5"/>
        <line class="cls-2" x1="47.12" y1="54.3" x2=".5" y2="146.35"/>
        <line class="cls-2" x1="102.12" y1="179.23" x2="159.8" y2="98.83"/>
        <line class="cls-2" x1=".5" y1="146.35" x2="102.12" y2="179.23"/>
        <line class="cls-2" x1="9.46" y1="82.69" x2=".5" y2="146.35"/>
        <line class="cls-1" x1="140.08" y1="40.85" x2="94.5" y2="114.52"/>
        <line class="cls-1" x1="9.46" y1="82.69" x2="94.5" y2="114.52"/>
        <line class="cls-1" x1="102.12" y1="179.23" x2="94.5" y2="114.52"/>
      </g>
      <g>
        <line class="cls-1" x1="167.81" y1="151.36" x2="169.35" y2="242.87"/>
        <line class="cls-1" x1="255.85" y1="249.95" x2="169.35" y2="242.87"/>
        <line class="cls-1" x1="132.51" y1="263.33" x2="169.35" y2="242.87"/>
        <line class="cls-2" x1="219.01" y1="270.4" x2="132.51" y2="263.33"/>
        <line class="cls-2" x1="130.96" y1="171.82" x2="132.51" y2="263.33"/>
        <line class="cls-2" x1="217.46" y1="178.89" x2="130.96" y2="171.82"/>
        <line class="cls-2" x1="167.81" y1="151.36" x2="130.96" y2="171.82"/>
        <line class="cls-2" x1="254.31" y1="158.44" x2="167.81" y2="151.36"/>
        <line class="cls-2" x1="217.46" y1="178.89" x2="254.31" y2="158.44"/>
        <line class="cls-2" x1="255.85" y1="249.95" x2="254.31" y2="158.44"/>
        <line class="cls-2" x1="219.01" y1="270.4" x2="255.85" y2="249.95"/>
        <line class="cls-2" x1="217.46" y1="178.89" x2="219.01" y2="270.4"/>
      </g>
    </g>
  </g>
</svg>