<?xml version="1.0" encoding="UTF-8"?>
<svg id="Layer_2" data-name="Layer 2" xmlns="http://www.w3.org/2000/svg" viewBox="0 0 124.1 142.99">
  <defs>
    <style>
      .cls-1, .cls-2, .cls-3 {
        fill: none;
        stroke: #231f20;
        stroke-linecap: round;
        stroke-linejoin: round;
      }

      .cls-2 {
        stroke-dasharray: 0 0 3.91 3.91;
      }

      .cls-3 {
        stroke-width: 2px;
      }
    </style>
  </defs>
  <g id="Layer_1-2" data-name="Layer 1">
    <g id="Cube">
      <g>
        <polygon class="cls-3" points="1 106.74 1 36.25 62.05 1 123.1 36.25 123.1 106.74 62.05 141.99 1 106.74"/>
        <polyline class="cls-3" points="1 36.25 62.05 71.49 123.1 36.25"/>
        <line class="cls-3" x1="62.05" y1="141.99" x2="62.05" y2="71.49"/>
      </g>
      <g>
        <g>
          <polyline class="cls-1" points="121.37 35.25 123.1 36.25 123.1 38.25"/>
          <line class="cls-2" x1="123.1" y1="42.16" x2="123.1" y2="102.79"/>
          <polyline class="cls-1" points="123.1 104.74 123.1 106.74 121.37 107.74"/>
          <line class="cls-2" x1="117.98" y1="109.7" x2="65.48" y2="140.01"/>
          <polyline class="cls-1" points="63.78 140.99 62.05 141.99 60.32 140.99"/>
          <line class="cls-2" x1="56.93" y1="139.03" x2="4.43" y2="108.72"/>
          <polyline class="cls-1" points="2.73 107.74 1 106.74 1 104.74"/>
          <line class="cls-2" x1="1" y1="100.83" x2="1" y2="40.2"/>
          <polyline class="cls-1" points="1 38.25 1 36.25 2.73 35.25"/>
          <line class="cls-2" x1="6.12" y1="33.29" x2="58.62" y2="2.98"/>
          <polyline class="cls-1" points="60.32 2 62.05 1 63.78 2"/>
          <line class="cls-2" x1="67.17" y1="3.96" x2="119.67" y2="34.27"/>
        </g>
        <g>
          <line class="cls-1" x1="123.1" y1="106.74" x2="121.37" y2="105.74"/>
          <line class="cls-2" x1="117.98" y1="103.79" x2="65.48" y2="73.47"/>
          <polyline class="cls-1" points="63.78 72.49 62.05 71.49 60.32 72.49"/>
          <line class="cls-2" x1="56.93" y1="74.45" x2="4.43" y2="104.76"/>
          <line class="cls-1" x1="2.73" y1="105.74" x2="1" y2="106.74"/>
        </g>
        <g>
          <line class="cls-1" x1="62.05" y1="1" x2="62.05" y2="3"/>
          <line class="cls-2" x1="62.05" y1="6.91" x2="62.05" y2="67.54"/>
          <line class="cls-1" x1="62.05" y1="69.49" x2="62.05" y2="71.49"/>
        </g>
      </g>
    </g>
  </g>
</svg>