<?xml version="1.0" encoding="UTF-8"?>
<svg id="Layer_2" data-name="Layer 2" xmlns="http://www.w3.org/2000/svg" viewBox="0 0 271.96 273.8">
  <defs>
    <style>
      .cls-1 {
        stroke-dasharray: 0 2.83;
      }

      .cls-1, .cls-2 {
        fill: none;
        stroke: #231f20;
        stroke-linecap: round;
        stroke-linejoin: round;
        stroke-width: .99px;
      }
    </style>
  </defs>
  <g id="Layer_1-2" data-name="Layer 1">
    <g id="Dodecahedron_Wire" data-name="Dodecahedron Wire">
      <g>
        <g>
          <line class="cls-2" x1="133.09" y1="62.9" x2="133.09" y2="15.28"/>
          <path class="cls-2" d="m92.03,9.89c49.27,6.47,30.4,6.78,82.13,0"/>
          <line class="cls-2" x1="133.09" y1="62.9" x2="91.85" y2="86.7"/>
          <path class="cls-2" d="m107.71,124.96c-19.03-45.91-9.33-29.73-41.06-71.13"/>
          <line class="cls-2" x1="133.09" y1="62.9" x2="174.33" y2="86.7"/>
          <path class="cls-2" d="m199.52,53.85c-30.24,39.43-21.08,22.94-41.07,71.11"/>
          <path class="cls-2" d="m66.65,53.83C97.11,1.1,86.81,12.91,107.72.83c60.89,0,45.51-3.02,66.44,9.06,30.43,52.74,25.36,37.91,25.36,62.07-30.46,52.72-20.15,40.92-41.07,52.99-60.89,0-45.51,3.02-66.44-9.06-30.43-52.74-25.36-37.91-25.36-62.07Z"/>
        </g>
        <g>
          <line class="cls-1" x1="133.09" y1="62.9" x2="133.09" y2="110.51"/>
          <path class="cls-1" d="m92.03,115.9c49.27-6.47,30.4-6.78,82.13,0"/>
          <line class="cls-1" x1="133.09" y1="62.9" x2="91.85" y2="39.09"/>
          <path class="cls-1" d="m107.71.83c-19.03,45.91-9.33,29.73-41.06,71.13"/>
          <line class="cls-1" x1="133.09" y1="62.9" x2="174.33" y2="39.09"/>
          <path class="cls-1" d="m199.52,71.94c-30.24-39.43-21.08-22.94-41.07-71.11"/>
          <path class="cls-1" d="m66.65,71.97c30.46,52.72,20.15,40.92,41.07,52.99,60.89,0,45.51,3.02,66.44-9.06,30.43-52.74,25.36-37.91,25.36-62.07C169.06,1.1,179.37,12.91,158.45.83c-60.89,0-45.51-3.02-66.44,9.06-30.43,52.74-25.36,37.91-25.36,62.07Z"/>
        </g>
      </g>
      <g>
        <polygon class="cls-2" points="62.41 169.24 24.92 196.48 39.24 240.55 85.58 240.55 99.9 196.48 62.41 169.24"/>
        <polygon class="cls-2" points="62.41 247.15 24.92 219.92 39.24 175.85 85.58 175.85 99.9 219.92 62.41 247.15"/>
        <polygon class="cls-2" points=".5 188.08 .5 228.32 24.15 260.87 62.41 273.3 100.68 260.87 124.33 228.32 124.33 188.08 100.68 155.53 62.41 143.1 24.15 155.53 .5 188.08"/>
        <line class="cls-2" x1="62.41" y1="143.1" x2="62.41" y2="169.24"/>
        <line class="cls-2" x1="24.15" y1="155.53" x2="39.51" y2="176.68"/>
        <line class="cls-2" x1=".5" y1="188.08" x2="25.36" y2="196.16"/>
        <line class="cls-2" x1=".5" y1="228.32" x2="25.36" y2="220.24"/>
        <line class="cls-2" x1="24.15" y1="260.87" x2="39.51" y2="239.71"/>
        <line class="cls-2" x1="62.41" y1="273.3" x2="62.41" y2="247.15"/>
        <line class="cls-2" x1="100.68" y1="260.87" x2="85.31" y2="239.71"/>
        <line class="cls-2" x1="124.33" y1="228.32" x2="99.46" y2="220.24"/>
        <line class="cls-2" x1="124.33" y1="188.08" x2="99.46" y2="196.16"/>
        <line class="cls-2" x1="100.68" y1="155.53" x2="85.31" y2="176.68"/>
      </g>
      <g>
        <line class="cls-2" x1="210.25" y1="145.78" x2="149.04" y2="183.9"/>
        <line class="cls-2" x1="210.25" y1="268.47" x2="149.04" y2="230.35"/>
        <line class="cls-2" x1="149.04" y1="230.35" x2="149.04" y2="183.9"/>
        <line class="cls-2" x1="210.25" y1="145.78" x2="271.46" y2="183.9"/>
        <line class="cls-2" x1="210.25" y1="268.47" x2="271.46" y2="230.35"/>
        <line class="cls-2" x1="271.46" y1="230.35" x2="271.46" y2="183.9"/>
        <line class="cls-2" x1="186.49" y1="207.12" x2="234.01" y2="207.12"/>
        <line class="cls-2" x1="172.69" y1="169.17" x2="186.49" y2="207.12"/>
        <line class="cls-2" x1="172.69" y1="245.07" x2="186.49" y2="207.12"/>
        <line class="cls-2" x1="247.81" y1="169.17" x2="234.01" y2="207.12"/>
        <line class="cls-2" x1="247.81" y1="245.07" x2="234.01" y2="207.12"/>
      </g>
    </g>
  </g>
</svg>