<?xml version="1.0" encoding="UTF-8"?>
<svg id="Layer_2" data-name="Layer 2" xmlns="http://www.w3.org/2000/svg" viewBox="0 0 206.84 201.9">
  <defs>
    <style>
      .cls-1 {
        stroke-dasharray: 0 2.83;
      }

      .cls-1, .cls-2 {
        fill: none;
        stroke: #231f20;
        stroke-linecap: round;
        stroke-linejoin: round;
        stroke-width: .99px;
      }
    </style>
  </defs>
  <g id="Layer_1-2" data-name="Layer 1">
    <g id="Dodecahedron_3D" data-name="Dodecahedron 3D">
      <line class="cls-2" x1="41.27" y1="31.7" x2="88.75" y2=".5"/>
      <line class="cls-2" x1="157.19" y1="16.1" x2="88.75" y2=".5"/>
      <line class="cls-2" x1="201.93" y1="63" x2="157.19" y2="16.1"/>
      <line class="cls-2" x1="206.34" y1="125.59" x2="201.93" y2="63"/>
      <line class="cls-2" x1="174.38" y1="188.18" x2="206.34" y2="125.59"/>
      <line class="cls-2" x1="119.51" y1="201.4" x2="174.38" y2="188.18"/>
      <line class="cls-2" x1="51.63" y1="197.65" x2="119.51" y2="201.4"/>
      <line class="cls-2" x1="20.99" y1="144.1" x2="51.63" y2="197.65"/>
      <line class="cls-2" x1=".5" y1="86.36" x2="20.99" y2="144.1"/>
      <line class="cls-2" x1="41.27" y1="31.7" x2=".5" y2="86.36"/>
      <line class="cls-2" x1="88.75" y1=".5" x2="81.82" y2="39.55"/>
      <line class="cls-2" x1="18.35" y1="99.36" x2="81.82" y2="39.55"/>
      <line class="cls-2" x1="160.5" y1="83.49" x2="81.82" y2="39.55"/>
      <line class="cls-2" x1="142.65" y1="171.87" x2="160.5" y2="83.49"/>
      <line class="cls-2" x1="54.71" y1="179.14" x2="142.65" y2="171.87"/>
      <line class="cls-2" x1="18.35" y1="99.36" x2="54.71" y2="179.14"/>
      <line class="cls-2" x1="201.93" y1="63" x2="160.5" y2="83.49"/>
      <line class="cls-2" x1="174.38" y1="188.18" x2="142.65" y2="171.87"/>
      <line class="cls-2" x1="51.63" y1="197.65" x2="54.71" y2="179.14"/>
      <line class="cls-1" x1="18.35" y1="99.36" x2=".5" y2="86.36"/>
      <line class="cls-1" x1="157.19" y1="16.1" x2="142.65" y2="52.86"/>
      <line class="cls-1" x1="41.27" y1="31.7" x2="78.29" y2="60.13"/>
      <line class="cls-1" x1="20.99" y1="144.1" x2="67.05" y2="122.5"/>
      <line class="cls-1" x1="119.51" y1="201.4" x2="121.16" y2="153.58"/>
      <line class="cls-1" x1="206.34" y1="125.59" x2="169.31" y2="111.48"/>
      <line class="cls-1" x1="142.65" y1="52.86" x2="169.31" y2="111.48"/>
      <line class="cls-1" x1="121.16" y1="153.58" x2="169.31" y2="111.48"/>
      <line class="cls-1" x1="67.05" y1="122.5" x2="121.16" y2="153.58"/>
      <line class="cls-1" x1="78.29" y1="60.13" x2="67.05" y2="122.5"/>
      <line class="cls-1" x1="142.65" y1="52.86" x2="78.29" y2="60.13"/>
    </g>
  </g>
</svg>